<?xml version="1.0" standalone="no"?>
<!DOCTYPE svg PUBLIC "-//W3C//DTD SVG 20010904//EN"
 "http://www.w3.org/TR/2001/REC-SVG-20010904/DTD/svg10.dtd">
<svg version="1.0" xmlns="http://www.w3.org/2000/svg"
 width="2000.000000pt" height="308.000000pt" viewBox="0 0 2000.000000 308.000000"
 preserveAspectRatio="xMidYMid meet">

<g transform="translate(0.000000,308.000000) scale(0.100000,-0.100000)"
fill="#000000" stroke="none">
<path d="M3520 3048 c-18 -13 -43 -41 -54 -63 -21 -40 -21 -43 -24 -1425 -2
-1048 0 -1396 9 -1428 14 -52 64 -108 104 -118 42 -10 94 21 125 76 l25 45 0
1405 0 1405 -23 43 c-24 45 -73 82 -108 82 -12 0 -36 -10 -54 -22z"/>
<path d="M13860 3053 c-597 -64 -1099 -522 -1245 -1136 -35 -149 -49 -291 -42
-447 7 -165 27 -280 72 -425 172 -552 613 -938 1151 -1010 332 -44 686 19 938
166 164 96 304 221 398 353 47 67 103 166 96 170 -19 12 -269 126 -276 126 -5
0 -16 -14 -23 -32 -26 -62 -130 -187 -209 -250 -191 -153 -439 -238 -695 -238
-536 0 -980 386 -1092 947 -24 121 -24 385 0 505 79 394 325 721 662 879 118
55 219 80 356 86 376 18 709 -155 709 -366 0 -68 -46 -131 -97 -131 -12 0 -37
13 -55 29 l-33 28 -132 -76 c-73 -42 -132 -79 -133 -83 0 -15 103 -118 148
-146 232 -148 536 -14 602 267 18 77 8 210 -22 292 -111 300 -498 504 -943
497 -55 0 -116 -3 -135 -5z"/>
<path d="M5967 2983 c-3 -4 -240 -566 -527 -1248 -287 -682 -533 -1259 -546
-1282 -25 -43 -67 -73 -101 -73 -33 0 -84 40 -101 79 l-18 38 -121 -65 c-117
-64 -120 -67 -113 -93 40 -140 161 -239 315 -258 139 -17 269 26 362 119 57
57 71 86 264 552 l114 278 549 -3 550 -2 190 -458 190 -457 178 0 c98 0 178 3
178 8 0 4 -274 651 -608 1437 l-608 1430 -71 3 c-39 2 -73 -1 -76 -5z m281
-1114 c106 -278 192 -511 192 -517 0 -9 -102 -12 -405 -12 -248 0 -405 4 -405
9 0 6 90 246 200 534 110 288 200 535 201 548 0 18 4 14 13 -16 7 -22 99 -268
204 -546z"/>
<path d="M7870 1545 l0 -1435 170 0 170 0 0 1435 0 1435 -170 0 -170 0 0
-1435z"/>
<path d="M9033 2961 c-162 -59 -272 -214 -273 -383 l0 -48 160 0 160 0 0 39
c0 28 7 49 24 68 l24 28 316 3 316 3 0 -1281 0 -1280 170 0 170 0 0 1280 0
1280 475 0 475 0 0 155 0 155 -982 0 c-933 -1 -986 -2 -1035 -19z"/>
<path d="M11600 1545 l0 -1435 170 0 170 0 0 1435 0 1435 -170 0 -170 0 0
-1435z"/>
<path d="M15770 1545 l0 -1435 875 0 875 0 0 155 0 155 -702 2 -703 3 -3 1278
-2 1277 -170 0 -170 0 0 -1435z"/>
<path d="M17935 2966 c-199 -49 -322 -196 -342 -409 l-6 -67 110 0 c61 0 131
-3 156 -6 l45 -6 7 41 c8 50 42 102 78 119 14 7 49 16 77 19 l50 6 0 -1277 0
-1276 935 0 935 0 0 155 0 155 -765 0 -765 0 0 525 0 525 523 2 522 3 3 158 3
157 -526 0 -525 0 0 440 0 440 765 0 765 0 0 155 0 155 -997 -1 c-756 0 -1010
-4 -1048 -13z"/>
</g>
</svg>
